<?xml version="1.0" standalone="no"?>
<!DOCTYPE svg PUBLIC "-//W3C//DTD SVG 20010904//EN"
 "http://www.w3.org/TR/2001/REC-SVG-20010904/DTD/svg10.dtd">
<svg version="1.0" xmlns="http://www.w3.org/2000/svg"
 width="256.000000pt" height="256.000000pt" viewBox="0 0 256.000000 256.000000"
 preserveAspectRatio="xMidYMid meet">

<g transform="translate(0.000000,256.000000) scale(0.100000,-0.100000)"
fill="#000000" stroke="none">
<path d="M526 2228 c-14 -20 -16 -124 -16 -920 l0 -898 -84 0 c-64 0 -88 -4
-100 -16 -19 -18 -21 -55 -4 -72 17 -17 1899 -17 1916 0 17 17 15 54 -4 72
-12 12 -36 16 -100 16 l-84 0 0 698 c0 543 -3 702 -12 714 -7 9 -100 52 -205
96 l-193 80 0 -794 0 -794 -55 0 -55 0 0 908 c0 693 -3 911 -12 920 -9 9 -133
12 -494 12 l-483 0 -15 -22z m426 -295 c22 -20 23 -56 2 -77 -22 -23 -141 -22
-166 1 -25 22 -23 59 4 77 31 22 135 22 160 -1z m306 1 c26 -18 28 -50 5 -76
-24 -27 -145 -26 -173 2 -11 11 -20 27 -20 35 0 8 9 24 20 35 26 26 133 28
168 4z m-307 -304 c27 -15 25 -64 -3 -84 -14 -10 -44 -16 -78 -16 -64 0 -100
20 -100 55 0 41 25 55 96 55 36 0 74 -5 85 -10z m311 -7 c10 -9 18 -26 18 -39
0 -35 -36 -54 -103 -54 -48 0 -62 4 -82 25 -30 29 -31 39 -5 65 27 27 144 29
172 3z m678 -16 c14 -27 14 -29 -13 -53 -31 -26 -102 -33 -151 -14 -34 13 -44
54 -20 81 15 17 28 19 93 17 71 -3 76 -5 91 -31z m-982 -289 c7 -7 12 -24 12
-38 0 -41 -17 -50 -100 -50 -83 0 -100 9 -100 50 0 41 17 50 100 50 46 0 81
-5 88 -12z m314 -13 c8 -19 8 -31 0 -50 -11 -24 -16 -25 -92 -25 -74 0 -81 2
-96 25 -15 23 -15 27 0 50 15 23 22 25 96 25 76 0 81 -1 92 -25z m664 0 c15
-23 15 -27 0 -50 -15 -23 -23 -25 -91 -25 -78 0 -105 13 -105 50 0 37 27 50
105 50 68 0 76 -2 91 -25z m-988 -291 c28 -20 30 -69 3 -84 -11 -5 -49 -10
-85 -10 -71 0 -96 14 -96 55 0 35 36 55 100 55 34 0 64 -6 78 -16z m310 0 c26
-18 28 -50 5 -76 -24 -27 -145 -26 -173 2 -26 26 -25 36 5 65 20 21 34 25 82
25 37 0 67 -6 81 -16z m669 -8 c27 -24 27 -26 13 -53 -15 -26 -20 -28 -91 -31
-65 -2 -78 0 -93 17 -23 26 -14 68 17 81 12 5 45 9 74 9 41 1 58 -4 80 -23z
m-769 -302 c21 -14 22 -22 22 -155 l0 -139 -55 0 -55 0 0 100 0 100 -50 0 -50
0 0 -100 0 -100 -50 0 -50 0 0 137 c0 179 -5 173 149 173 89 0 122 -4 139 -16z
m772 -4 c11 -11 20 -27 20 -35 0 -35 -38 -55 -103 -55 -94 0 -136 42 -90 92
24 27 145 26 173 -2z"/>
</g>
</svg>
